<svg width="101" height="188" viewBox="0 0 101 188" fill="none" xmlns="http://www.w3.org/2000/svg">
<path id="Combined Shape" fill-rule="evenodd" clip-rule="evenodd" d="M92.7754 0C92.7754 0 113.762 21.4092 72.8703 54.3304C47.5137 74.7515 56.9013 88.3851 65.9126 101.472C68.5547 105.309 71.1645 109.1 72.8567 113C53.716 95.3888 39.6692 79.8856 49.0929 65.4566C53.6949 58.4095 61.0077 52.5703 68.4061 46.6627C83.2438 34.8149 98.4257 22.6923 92.7754 0ZM81.234 98.3095C90.6516 109.726 78.7596 120 78.7596 120C78.7596 120 102.672 107.002 91.6903 90.7249C91.2501 90.0733 90.8142 89.4358 90.3865 88.8103L90.3857 88.8091C80.8508 74.8637 75.3968 66.8868 116.149 42C116.149 42 49.3104 59.5774 81.234 98.3095ZM46.7396 145.082C34.0141 143.66 42.3465 137 42.3465 137C9.41703 148.802 60.6678 162.186 106.681 147.656C101.79 145.794 98.6799 142.389 98.6799 142.389C76.1919 147.065 63.196 146.915 46.7396 145.082ZM52.3509 165.12C39.5005 163.573 47.008 159 47.008 159C16.8006 167.841 65.3818 186.106 103.841 168.841C97.5416 166.275 93.0312 163.313 93.0312 163.313C75.8753 166.714 67.9188 166.981 52.3509 165.12ZM127.065 184.299C138.748 180.57 133.188 175.75 133.188 175.75C153.543 185.41 88.9668 204.83 10.4935 191.44C-18.2813 186.532 24.3431 169.395 32.1446 175.178C32.1446 175.178 29.6784 174.994 25.3627 175.979C21.2245 176.914 8.06914 181.37 15.0843 184.581C34.5992 193.519 104.849 191.38 127.065 184.299ZM49.5891 113.037C49.5891 113.037 13.6232 122.847 36.8527 126.409C46.6608 127.917 66.2132 127.576 84.4258 125.824C99.3101 124.382 114.256 121.316 114.256 121.316C114.256 121.316 109.007 123.897 105.21 126.875C68.6875 137.906 -1.86754 132.774 18.4444 121.491C35.6222 111.955 49.5891 113.037 49.5891 113.037ZM121.031 115.644C132.934 113.143 149.989 131.708 113.103 151.026C112.933 151.486 112.362 152.001 112.362 152C161.624 138.947 143.513 105.991 119.964 114.336C117.895 115.076 116.812 116.786 116.812 116.786C116.812 116.786 118.113 116.256 121.031 115.644ZM145.5 187C144.198 204.986 89.1939 208.77 53.3752 206.336C30.0079 204.746 25.325 200.772 25.2565 200.714L25.2557 200.713C47.6197 204.626 85.326 205.339 115.898 199.233C142.996 193.819 145.5 187 145.5 187Z" fill="#333333"/>
</svg>
